<svg xmlns="http://www.w3.org/2000/svg" xmlns:v="https://svgstorm.com"
viewBox = "0 0 370 270"
width="370"
height="270">
<g fill="None" fill-opacity="0.0" stroke="#000000" stroke-opacity="0.00" stroke-width="0.3"><path d="
M 0.00 270.00 
L 370.00 270.00
L 370.00 0.00
L 0.00 0.00
L 0.00 270.00
M 224.00 23.00 
C 234.77 25.08 229.64 43.87 219.00 40.00 C 208.36 36.13 214.21 21.11 224.00 23.00
M 135.00 26.00 
C 152.11 29.98 144.66 60.22 126.78 54.22 C 108.90 48.22 115.36 21.43 135.00 26.00
M 112.00 56.00 
C 115.45 57.27 118.05 59.37 121.00 61.00
C 122.57 61.63 124.35 62.41 126.00 63.00
C 130.45 64.59 135.07 65.10 140.00 65.00
C 151.27 64.77 158.06 59.05 168.22 55.22 C 178.38 51.40 191.10 50.78 202.00 52.00
C 208.48 52.72 215.10 55.24 221.00 58.00
C 227.84 61.20 235.06 69.28 242.00 71.00
C 254.40 72.89 261.67 65.10 272.00 61.00
C 290.36 53.71 310.33 56.63 326.00 69.00
C 338.70 79.03 343.19 91.05 345.00 107.00 C 346.81 122.95 338.72 136.42 328.25 148.25 C 317.78 160.08 301.06 158.89 289.00 167.00
C 274.96 176.44 274.84 194.09 267.08 207.08 C 259.32 220.07 247.34 230.11 234.00 236.00
C 221.62 241.47 204.59 243.11 191.00 240.00
C 174.78 236.29 158.59 225.57 150.00 211.00
C 147.40 207.37 145.14 203.97 143.00 200.00
C 133.00 181.27 111.72 185.77 95.00 189.00
C 88.28 190.30 80.07 190.49 73.00 189.00
C 70.62 188.50 68.35 187.65 66.00 187.00
C 52.39 183.26 40.12 175.55 31.00 164.00
C 26.63 158.46 23.52 152.43 21.00 146.00
C 7.24 110.94 25.46 64.29 64.00 54.00
C 80.20 49.67 96.39 50.24 112.00 56.00
M 310.00 181.00 
C 327.28 183.67 323.53 212.47 305.33 209.67 C 287.13 206.87 291.62 178.16 310.00 181.00 Z"/>
</g>
<g fill="None" fill-opacity="0.0" stroke="#81CAA0" stroke-opacity="0.77" stroke-width="0.3"><path d="
M 224.00 23.00 
C 214.21 21.11 208.36 36.13 219.00 40.00 C 229.64 43.87 234.77 25.08 224.00 23.00 Z"/>
</g>
<g fill="None" fill-opacity="0.0" stroke="#BDD37E" stroke-opacity="0.87" stroke-width="0.3"><path d="
M 135.00 26.00 
C 115.36 21.43 108.90 48.22 126.78 54.22 C 144.66 60.22 152.11 29.98 135.00 26.00 Z"/>
</g>
<g fill="None" fill-opacity="0.0" stroke="#D7D970" stroke-opacity="0.98" stroke-width="0.3"><path d="
M 64.00 54.00 
C 68.04 55.19 60.96 66.33 60.03 70.03 C 59.09 73.73 56.03 79.45 54.74 83.75 C 53.45 88.06 49.87 94.70 49.20 99.25 C 48.53 103.80 43.94 108.15 43.22 113.22 C 42.51 118.30 39.26 122.47 37.70 126.70 C 36.14 130.94 34.33 136.59 33.20 141.25 C 32.07 145.90 25.77 152.40 26.00 155.00
C 28.50 159.35 31.73 163.18 35.00 167.00
C 43.12 176.50 54.94 182.81 66.00 187.00
C 68.35 187.65 70.62 188.50 73.00 189.00
C 76.93 187.72 77.92 177.89 80.32 174.32 C 82.72 170.75 83.46 162.52 86.00 158.00
C 82.66 157.84 83.80 157.20 82.00 156.00
C 72.49 149.68 72.02 139.02 76.93 127.93 C 81.84 116.83 65.83 106.88 71.99 95.99 C 78.15 85.11 91.53 103.68 87.00 113.00
C 91.72 105.41 89.68 90.70 101.00 88.00
C 103.86 85.23 105.40 77.20 106.93 72.93 C 108.45 68.65 113.20 61.33 113.00 57.00
C 112.67 56.83 112.27 56.18 112.00 56.00
C 96.39 50.24 80.20 49.67 64.00 54.00 Z"/>
</g>
<g fill="None" fill-opacity="0.0" stroke="#9DD18E" stroke-opacity="0.27" stroke-width="0.3"><path d="
M 140.00 65.00 
C 148.85 65.86 155.63 62.83 164.00 59.00
C 175.84 53.59 186.18 53.85 199.00 53.00
C 200.16 52.92 201.45 52.07 202.00 52.00
C 191.10 50.78 178.38 51.40 168.22 55.22 C 158.06 59.05 151.27 64.77 140.00 65.00 Z"/>
</g>
<g fill="None" fill-opacity="0.0" stroke="#95D194" stroke-opacity="0.98" stroke-width="0.3"><path d="
M 164.00 59.00 
C 161.51 62.35 161.04 69.53 158.74 73.74 C 156.45 77.95 154.21 82.98 153.40 87.74 C 152.60 92.51 147.99 97.12 147.00 102.00
C 144.70 113.36 151.36 126.30 152.00 138.00
C 152.48 140.96 152.96 142.97 152.00 146.00
C 149.02 155.41 139.08 153.38 131.00 152.00
C 129.91 151.81 127.38 152.31 126.00 150.00
C 123.79 152.17 120.24 153.05 117.00 153.00
C 112.15 155.65 112.15 165.90 109.41 169.75 C 106.67 173.60 105.76 181.49 105.00 186.00
C 120.56 183.26 135.87 184.78 144.00 200.00
C 146.16 202.47 146.48 205.29 148.00 208.00
C 147.81 204.84 152.77 199.37 153.21 195.77 C 153.65 192.16 157.30 186.32 158.39 182.25 C 159.49 178.18 161.98 172.77 165.00 169.00
C 165.24 168.70 165.00 168.00 165.00 168.00
C 159.70 168.40 157.93 165.65 158.00 162.00
C 158.13 155.24 160.94 152.37 163.32 146.32 C 165.70 140.27 165.40 133.03 165.00 126.00 C 164.60 118.97 162.80 115.62 163.98 107.98 C 165.15 100.33 172.29 104.13 177.00 103.00
C 178.16 102.72 179.25 101.97 181.00 102.00
C 177.29 99.47 184.72 90.01 185.92 85.92 C 187.12 81.83 189.08 72.88 191.40 69.25 C 193.72 65.62 194.23 55.37 199.00 53.00
C 186.18 53.85 175.84 53.59 164.00 59.00 Z"/>
</g>
<g fill="None" fill-opacity="0.0" stroke="#70CCA9" stroke-opacity="0.97" stroke-width="0.3"><path d="
M 199.00 53.00 
C 194.23 55.37 193.72 65.62 191.40 69.25 C 189.08 72.88 187.12 81.83 185.92 85.92 C 184.72 90.01 177.29 99.47 181.00 102.00
C 184.06 102.05 183.95 102.55 186.00 104.00
C 194.89 110.29 199.18 120.66 200.00 131.00
C 200.73 134.79 200.72 138.27 200.00 142.00
C 199.00 154.60 191.66 166.92 178.00 168.00
C 174.23 168.73 169.45 169.40 165.00 169.00
C 161.98 172.77 159.49 178.18 158.39 182.25 C 157.30 186.32 153.65 192.16 153.21 195.77 C 152.77 199.37 147.81 204.84 148.00 208.00
C 148.60 209.07 149.39 209.97 150.00 211.00
C 158.59 225.57 174.78 236.29 191.00 240.00
C 195.73 238.90 193.97 233.17 196.19 228.75 C 198.42 224.34 199.52 222.68 201.59 216.25 C 203.66 209.81 208.49 197.76 211.26 191.25 C 214.04 184.73 213.70 183.56 215.19 179.75 C 216.68 175.95 221.84 168.15 219.00 167.00
C 217.68 167.13 216.32 166.90 215.00 167.00
C 210.75 167.97 211.63 169.13 208.00 167.00
C 200.47 162.58 204.50 155.26 206.00 148.00
C 206.29 144.77 206.12 141.24 206.00 138.00
C 205.67 129.34 202.17 122.13 200.00 114.00
C 199.28 111.30 198.78 109.74 200.00 107.00
C 202.70 100.96 216.28 101.05 222.00 102.00
C 226.64 102.77 232.70 107.52 235.00 113.00
C 237.65 113.88 236.13 110.34 238.00 110.00
C 239.28 98.22 247.88 90.56 260.00 94.00
C 262.54 90.20 261.74 84.80 263.20 81.75 C 264.66 78.71 269.31 73.86 269.25 71.25 C 269.19 68.63 272.50 61.13 272.00 61.00
C 261.67 65.10 254.40 72.89 242.00 71.00
C 234.14 69.80 227.40 61.76 221.00 58.00
C 215.10 55.24 208.48 52.72 202.00 52.00
C 201.45 52.07 200.16 52.92 199.00 53.00 Z"/>
</g>
<g fill="None" fill-opacity="0.0" stroke="#F0DB62" stroke-opacity="0.97" stroke-width="0.3"><path d="
M 21.00 146.00 
C 22.50 148.81 24.32 152.08 26.00 155.00
C 25.77 152.40 32.07 145.90 33.20 141.25 C 34.33 136.59 36.14 130.94 37.70 126.70 C 39.26 122.47 42.51 118.30 43.22 113.22 C 43.94 108.15 48.53 103.80 49.20 99.25 C 49.87 94.70 53.45 88.06 54.74 83.75 C 56.03 79.45 59.09 73.73 60.03 70.03 C 60.96 66.33 68.04 55.19 64.00 54.00
C 25.46 64.29 7.24 110.94 21.00 146.00 Z"/>
</g>
<g fill="None" fill-opacity="0.0" stroke="#B6BA91" stroke-opacity="0.07" stroke-width="0.3"><path d="
M 113.00 57.00 
C 115.02 58.04 116.99 58.97 119.00 60.00
C 119.72 60.37 120.25 60.70 121.00 61.00
C 118.05 59.37 115.45 57.27 112.00 56.00
C 112.27 56.18 112.67 56.83 113.00 57.00 Z"/>
</g>
<g fill="None" fill-opacity="0.0" stroke="#B3D584" stroke-opacity="0.95" stroke-width="0.3"><path d="
M 101.00 88.00 
C 107.88 88.07 109.34 97.35 106.23 102.23 C 103.12 107.11 98.95 112.19 98.00 118.00
C 113.16 114.57 120.12 130.47 127.00 140.00
C 128.56 132.26 133.70 124.21 134.33 116.33 C 134.96 108.45 136.13 94.92 147.00 102.00
C 147.99 97.12 152.60 92.51 153.40 87.74 C 154.21 82.98 156.45 77.95 158.74 73.74 C 161.04 69.53 161.51 62.35 164.00 59.00
C 155.63 62.83 148.85 65.86 140.00 65.00
C 135.07 65.10 130.45 64.59 126.00 63.00
C 123.35 62.54 121.94 61.88 119.00 60.00
C 116.99 58.97 115.02 58.04 113.00 57.00
C 113.20 61.33 108.45 68.65 106.93 72.93 C 105.40 77.20 103.86 85.23 101.00 88.00
M 145.00 86.00 
C 151.47 87.84 148.20 98.29 141.00 96.00 C 133.80 93.71 137.29 83.81 145.00 86.00 Z"/>
</g>
<g fill="None" fill-opacity="0.0" stroke="#3BC5C6" stroke-opacity="0.98" stroke-width="0.3"><path d="
M 272.00 61.00 
C 272.50 61.13 269.19 68.63 269.25 71.25 C 269.31 73.86 264.66 78.71 263.20 81.75 C 261.74 84.80 262.54 90.20 260.00 94.00
C 261.78 94.51 263.30 95.13 265.00 96.00
C 268.42 97.75 271.77 100.58 274.00 104.00
C 279.90 113.06 284.35 124.83 284.00 136.00 C 283.65 147.17 274.14 158.51 262.00 156.00
C 260.05 156.84 260.52 166.03 258.61 168.75 C 256.69 171.48 254.52 177.76 252.43 181.77 C 250.34 185.77 250.41 190.76 248.61 194.75 C 246.80 198.75 243.37 205.45 242.61 208.75 C 241.84 212.06 237.44 220.83 236.75 222.75 C 236.06 224.67 231.80 235.54 234.00 236.00
C 247.34 230.11 259.32 220.07 267.08 207.08 C 274.84 194.09 274.96 176.44 289.00 167.00
C 288.73 167.06 286.11 166.46 285.00 167.00
C 298.48 132.19 310.10 104.35 322.00 70.00
C 323.16 68.08 325.24 71.32 326.00 69.00
C 310.33 56.63 290.36 53.71 272.00 61.00 Z"/>
</g>
<g fill="None" fill-opacity="0.0" stroke="#88BBA7" stroke-opacity="0.16" stroke-width="0.3"><path d="
M 242.00 71.00 
C 235.06 69.28 227.84 61.20 221.00 58.00
C 227.40 61.76 234.14 69.80 242.00 71.00 Z"/>
</g>
<g fill="None" fill-opacity="0.0" stroke="#B9CF82" stroke-opacity="0.33" stroke-width="0.3"><path d="
M 126.00 63.00 
C 124.35 62.41 122.57 61.63 121.00 61.00
C 120.25 60.70 119.72 60.37 119.00 60.00
C 121.94 61.88 123.35 62.54 126.00 63.00 Z"/>
</g>
<g fill="None" fill-opacity="0.0" stroke="#22C2D4" stroke-opacity="0.99" stroke-width="0.3"><path d="
M 289.00 167.00 
C 301.06 158.89 317.78 160.08 328.25 148.25 C 338.72 136.42 346.81 122.95 345.00 107.00 C 343.19 91.05 338.70 79.03 326.00 69.00
C 325.24 71.32 323.16 68.08 322.00 70.00
C 310.10 104.35 298.48 132.19 285.00 167.00
C 286.11 166.46 288.73 167.06 289.00 167.00 Z"/>
</g>
<g fill="None" fill-opacity="0.0" stroke="#000000" stroke-opacity="0.00" stroke-width="0.3"><path d="
M 145.00 86.00 
C 137.29 83.81 133.80 93.71 141.00 96.00 C 148.20 98.29 151.47 87.84 145.00 86.00 Z"/>
</g>
<g fill="None" fill-opacity="0.0" stroke="#000000" stroke-opacity="0.00" stroke-width="0.3"><path d="
M 82.00 156.00 
C 85.44 157.25 87.60 156.95 91.00 156.00
C 104.97 152.10 99.96 137.03 94.00 128.00
C 111.70 124.55 97.68 153.62 114.00 153.00
C 118.50 152.92 123.73 149.71 128.00 148.00
C 127.79 149.77 129.54 151.37 131.00 152.00
C 139.08 153.38 149.02 155.41 152.00 146.00
C 152.43 143.59 152.13 140.45 152.00 138.00
C 151.36 126.30 144.70 113.36 147.00 102.00
C 136.13 94.92 134.96 108.45 134.33 116.33 C 133.70 124.21 128.56 132.26 127.00 140.00
C 120.12 130.47 113.16 114.57 98.00 118.00
C 98.95 112.19 103.12 107.11 106.23 102.23 C 109.34 97.35 107.88 88.07 101.00 88.00
C 89.68 90.70 91.72 105.41 87.00 113.00
C 91.53 103.68 78.15 85.11 71.99 95.99 C 65.83 106.88 81.84 116.83 76.93 127.93 C 72.02 139.02 72.49 149.68 82.00 156.00 Z"/>
</g>
<g fill="None" fill-opacity="0.0" stroke="#000000" stroke-opacity="0.00" stroke-width="0.3"><path d="
M 238.00 110.00 
C 237.62 113.51 238.48 117.12 237.00 120.00
C 235.07 112.38 228.35 106.00 222.00 102.00
C 216.28 101.05 202.70 100.96 200.00 107.00
C 199.53 108.80 199.75 112.15 200.00 114.00
C 202.17 122.13 205.67 129.34 206.00 138.00
C 206.49 141.45 206.71 144.55 206.00 148.00
C 204.50 155.26 200.47 162.58 208.00 167.00
C 210.85 168.01 211.97 167.23 215.00 167.00
C 216.32 166.90 217.68 167.13 219.00 167.00
C 235.08 165.42 242.00 153.41 242.00 138.00
C 242.00 137.17 239.97 134.56 241.00 133.00
C 242.49 134.16 243.02 136.34 244.00 138.00
C 247.46 144.78 254.19 154.38 262.00 156.00
C 274.14 158.51 283.65 147.17 284.00 136.00 C 284.35 124.83 279.90 113.06 274.00 104.00
C 272.02 101.42 267.55 97.62 265.00 96.00
C 263.30 95.13 261.78 94.51 260.00 94.00
C 247.88 90.56 239.28 98.22 238.00 110.00
M 251.00 114.00 
C 250.49 111.14 248.54 106.39 252.00 104.00
C 256.73 100.73 260.53 108.82 262.77 112.23 C 265.01 115.64 267.05 127.59 259.99 126.99 C 252.93 126.39 251.94 119.24 251.00 114.00
M 221.00 114.00 
C 227.61 115.91 227.88 138.19 221.32 136.66 C 214.76 135.13 213.30 111.77 221.00 114.00 Z"/>
</g>
<g fill="None" fill-opacity="0.0" stroke="#A9E2DA" stroke-opacity="0.29" stroke-width="0.3"><path d="
M 274.00 104.00 
C 271.77 100.58 268.42 97.75 265.00 96.00
C 267.55 97.62 272.02 101.42 274.00 104.00 Z"/>
</g>
<g fill="None" fill-opacity="0.0" stroke="#A0DFC8" stroke-opacity="0.37" stroke-width="0.3"><path d="
M 222.00 102.00 
C 228.35 106.00 235.07 112.38 237.00 120.00
C 238.48 117.12 237.62 113.51 238.00 110.00
C 236.13 110.34 237.65 113.88 235.00 113.00
C 232.70 107.52 226.64 102.77 222.00 102.00 Z"/>
</g>
<g fill="None" fill-opacity="0.0" stroke="#000000" stroke-opacity="0.00" stroke-width="0.3"><path d="
M 158.00 162.00 
C 159.02 166.59 163.23 165.97 166.00 168.00
C 169.96 168.00 174.06 168.31 178.00 168.00
C 191.66 166.92 199.00 154.60 200.00 142.00
C 200.28 138.49 200.28 134.51 200.00 131.00
C 199.18 120.66 194.89 110.29 186.00 104.00
C 183.26 102.76 180.07 103.08 177.00 103.00
C 172.29 104.13 165.15 100.33 163.98 107.98 C 162.80 115.62 164.60 118.97 165.00 126.00 C 165.40 133.03 165.70 140.27 163.32 146.32 C 160.94 152.37 158.13 155.24 158.00 162.00
M 180.00 139.00 
C 176.01 134.92 176.23 113.95 183.22 116.78 C 190.22 119.62 187.49 139.32 180.00 139.00 Z"/>
</g>
<g fill="None" fill-opacity="0.0" stroke="#B8E2BE" stroke-opacity="0.28" stroke-width="0.3"><path d="
M 177.00 103.00 
C 180.07 103.08 183.26 102.76 186.00 104.00
C 183.95 102.55 184.06 102.05 181.00 102.00
C 179.25 101.97 178.16 102.72 177.00 103.00 Z"/>
</g>
<g fill="None" fill-opacity="0.0" stroke="#5CCBBF" stroke-opacity="0.88" stroke-width="0.3"><path d="
M 252.00 104.00 
C 250.52 105.57 250.90 111.84 251.00 114.00
C 251.94 119.24 252.93 126.39 259.99 126.99 C 267.05 127.59 265.01 115.64 262.77 112.23 C 260.53 108.82 256.73 100.73 252.00 104.00 Z"/>
</g>
<g fill="None" fill-opacity="0.0" stroke="#A3E1D1" stroke-opacity="0.33" stroke-width="0.3"><path d="
M 251.00 114.00 
C 250.90 111.84 250.52 105.57 252.00 104.00
C 248.54 106.39 250.49 111.14 251.00 114.00 Z"/>
</g>
<g fill="None" fill-opacity="0.0" stroke="#B3E2C6" stroke-opacity="0.23" stroke-width="0.3"><path d="
M 200.00 114.00 
C 199.75 112.15 199.53 108.80 200.00 107.00
C 198.78 109.74 199.28 111.30 200.00 114.00 Z"/>
</g>
<g fill="None" fill-opacity="0.0" stroke="#75D0B4" stroke-opacity="0.80" stroke-width="0.3"><path d="
M 221.00 114.00 
C 213.30 111.77 214.76 135.13 221.32 136.66 C 227.88 138.19 227.61 115.91 221.00 114.00 Z"/>
</g>
<g fill="None" fill-opacity="0.0" stroke="#89D1A4" stroke-opacity="0.82" stroke-width="0.3"><path d="
M 180.00 139.00 
C 187.49 139.32 190.22 119.62 183.22 116.78 C 176.23 113.95 176.01 134.92 180.00 139.00 Z"/>
</g>
<g fill="None" fill-opacity="0.0" stroke="#B4D584" stroke-opacity="0.95" stroke-width="0.3"><path d="
M 91.00 156.00 
C 89.39 156.79 89.41 158.16 86.00 158.00
C 83.46 162.52 82.72 170.75 80.32 174.32 C 77.92 177.89 76.93 187.72 73.00 189.00
C 80.07 190.49 88.28 190.30 95.00 189.00
C 96.00 188.62 101.47 186.62 105.00 186.00
C 105.76 181.49 106.67 173.60 109.41 169.75 C 112.15 165.90 112.15 155.65 117.00 153.00
C 116.02 153.03 114.98 153.05 114.00 153.00
C 97.68 153.62 111.70 124.55 94.00 128.00
C 99.96 137.03 104.97 152.10 91.00 156.00 Z"/>
</g>
<g fill="None" fill-opacity="0.0" stroke="#A1DDC1" stroke-opacity="0.44" stroke-width="0.3"><path d="
M 200.00 142.00 
C 200.72 138.27 200.73 134.79 200.00 131.00
C 200.28 134.51 200.28 138.49 200.00 142.00 Z"/>
</g>
<g fill="None" fill-opacity="0.0" stroke="#C5EDDD" stroke-opacity="0.15" stroke-width="0.3"><path d="
M 242.00 138.00 
C 242.45 137.20 243.22 137.34 244.00 138.00
C 243.02 136.34 242.49 134.16 241.00 133.00
C 239.97 134.56 242.00 137.17 242.00 138.00 Z"/>
</g>
<g fill="None" fill-opacity="0.0" stroke="#4DC8BC" stroke-opacity="0.98" stroke-width="0.3"><path d="
M 242.00 138.00 
C 242.00 153.41 235.08 165.42 219.00 167.00
C 221.84 168.15 216.68 175.95 215.19 179.75 C 213.70 183.56 214.04 184.73 211.26 191.25 C 208.49 197.76 203.66 209.81 201.59 216.25 C 199.52 222.68 198.42 224.34 196.19 228.75 C 193.97 233.17 195.73 238.90 191.00 240.00
C 204.59 243.11 221.62 241.47 234.00 236.00
C 231.80 235.54 236.06 224.67 236.75 222.75 C 237.44 220.83 241.84 212.06 242.61 208.75 C 243.37 205.45 246.80 198.75 248.61 194.75 C 250.41 190.76 250.34 185.77 252.43 181.77 C 254.52 177.76 256.69 171.48 258.61 168.75 C 260.52 166.03 260.05 156.84 262.00 156.00
C 254.19 154.38 247.46 144.78 244.00 138.00
C 243.22 137.34 242.45 137.20 242.00 138.00 Z"/>
</g>
<g fill="None" fill-opacity="0.0" stroke="#C9E9C6" stroke-opacity="0.15" stroke-width="0.3"><path d="
M 152.00 146.00 
C 152.96 142.97 152.48 140.96 152.00 138.00
C 152.13 140.45 152.43 143.59 152.00 146.00 Z"/>
</g>
<g fill="None" fill-opacity="0.0" stroke="#BCE6D3" stroke-opacity="0.18" stroke-width="0.3"><path d="
M 206.00 148.00 
C 206.71 144.55 206.49 141.45 206.00 138.00
C 206.12 141.24 206.29 144.77 206.00 148.00 Z"/>
</g>
<g fill="None" fill-opacity="0.0" stroke="#CCC582" stroke-opacity="0.30" stroke-width="0.3"><path d="
M 31.00 164.00 
C 32.08 165.12 33.92 165.97 35.00 167.00
C 31.73 163.18 28.50 159.35 26.00 155.00
C 24.32 152.08 22.50 148.81 21.00 146.00
C 23.52 152.43 26.63 158.46 31.00 164.00 Z"/>
</g>
<g fill="None" fill-opacity="0.0" stroke="#B3DA9D" stroke-opacity="0.44" stroke-width="0.3"><path d="
M 114.00 153.00 
C 114.98 153.05 116.02 153.03 117.00 153.00
C 120.24 153.05 123.79 152.17 126.00 150.00
C 127.38 152.31 129.91 151.81 131.00 152.00
C 129.54 151.37 127.79 149.77 128.00 148.00
C 123.73 149.71 118.50 152.92 114.00 153.00 Z"/>
</g>
<g fill="None" fill-opacity="0.0" stroke="#C4DA8A" stroke-opacity="0.60" stroke-width="0.3"><path d="
M 86.00 158.00 
C 89.41 158.16 89.39 156.79 91.00 156.00
C 87.60 156.95 85.44 157.25 82.00 156.00
C 83.80 157.20 82.66 157.84 86.00 158.00 Z"/>
</g>
<g fill="None" fill-opacity="0.0" stroke="#9CD7AB" stroke-opacity="0.48" stroke-width="0.3"><path d="
M 165.00 168.00 
C 165.50 167.96 166.00 168.00 166.00 168.00
C 163.23 165.97 159.02 166.59 158.00 162.00
C 157.93 165.65 159.70 168.40 165.00 168.00 Z"/>
</g>
<g fill="None" fill-opacity="0.0" stroke="#BEC08B" stroke-opacity="0.15" stroke-width="0.3"><path d="
M 66.00 187.00 
C 54.94 182.81 43.12 176.50 35.00 167.00
C 33.92 165.97 32.08 165.12 31.00 164.00
C 40.12 175.55 52.39 183.26 66.00 187.00 Z"/>
</g>
<g fill="None" fill-opacity="0.0" stroke="#A1DCCE" stroke-opacity="0.40" stroke-width="0.3"><path d="
M 215.00 167.00 
C 211.97 167.23 210.85 168.01 208.00 167.00
C 211.63 169.13 210.75 167.97 215.00 167.00 Z"/>
</g>
<g fill="None" fill-opacity="0.0" stroke="#84D0A5" stroke-opacity="0.65" stroke-width="0.3"><path d="
M 165.00 169.00 
C 169.45 169.40 174.23 168.73 178.00 168.00
C 174.06 168.31 169.96 168.00 166.00 168.00
C 166.00 168.00 165.50 167.96 165.00 168.00
C 165.00 168.00 165.24 168.70 165.00 169.00 Z"/>
</g>
<g fill="None" fill-opacity="0.0" stroke="#23C1DA" stroke-opacity="0.96" stroke-width="0.3"><path d="
M 310.00 181.00 
C 291.62 178.16 287.13 206.87 305.33 209.67 C 323.53 212.47 327.28 183.67 310.00 181.00 Z"/>
</g>
<g fill="None" fill-opacity="0.0" stroke="#9BD190" stroke-opacity="0.27" stroke-width="0.3"><path d="
M 105.00 186.00 
C 101.47 186.62 96.00 188.62 95.00 189.00
C 111.72 185.77 133.00 181.27 143.00 200.00
C 143.11 200.21 144.00 200.00 144.00 200.00
C 135.87 184.78 120.56 183.26 105.00 186.00 Z"/>
</g>
<g fill="None" fill-opacity="0.0" stroke="#87C1A9" stroke-opacity="0.11" stroke-width="0.3"><path d="
M 150.00 211.00 
C 149.39 209.97 148.60 209.07 148.00 208.00
C 146.48 205.29 146.16 202.47 144.00 200.00
C 144.00 200.00 143.11 200.21 143.00 200.00
C 145.14 203.97 147.40 207.37 150.00 211.00 Z"/>
</g>
<g fill="#000000" fill-opacity="0.00" stroke="None">
<path d="
M 0.00 270.00 
L 370.00 270.00
L 370.00 0.00
L 0.00 0.00
L 0.00 270.00
M 224.00 23.00 
C 234.77 25.08 229.64 43.87 219.00 40.00 C 208.36 36.13 214.21 21.11 224.00 23.00
M 135.00 26.00 
C 152.11 29.98 144.66 60.22 126.78 54.22 C 108.90 48.22 115.36 21.43 135.00 26.00
M 112.00 56.00 
C 115.45 57.27 118.05 59.37 121.00 61.00
C 122.57 61.63 124.35 62.41 126.00 63.00
C 130.45 64.59 135.07 65.10 140.00 65.00
C 151.27 64.77 158.06 59.05 168.22 55.22 C 178.38 51.40 191.10 50.78 202.00 52.00
C 208.48 52.72 215.10 55.24 221.00 58.00
C 227.84 61.20 235.06 69.28 242.00 71.00
C 254.40 72.89 261.67 65.10 272.00 61.00
C 290.36 53.71 310.33 56.63 326.00 69.00
C 338.70 79.03 343.19 91.05 345.00 107.00 C 346.81 122.95 338.72 136.42 328.25 148.25 C 317.78 160.08 301.06 158.89 289.00 167.00
C 274.96 176.44 274.84 194.09 267.08 207.08 C 259.32 220.07 247.34 230.11 234.00 236.00
C 221.62 241.47 204.59 243.11 191.00 240.00
C 174.78 236.29 158.59 225.57 150.00 211.00
C 147.40 207.37 145.14 203.97 143.00 200.00
C 133.00 181.27 111.72 185.77 95.00 189.00
C 88.28 190.30 80.07 190.49 73.00 189.00
C 70.62 188.50 68.35 187.65 66.00 187.00
C 52.39 183.26 40.12 175.55 31.00 164.00
C 26.63 158.46 23.52 152.43 21.00 146.00
C 7.24 110.94 25.46 64.29 64.00 54.00
C 80.20 49.67 96.39 50.24 112.00 56.00
M 310.00 181.00 
C 327.28 183.67 323.53 212.47 305.33 209.67 C 287.13 206.87 291.62 178.16 310.00 181.00 Z"/>
</g>
<g fill="#81CAA0" fill-opacity="0.77" stroke="None">
<path d="
M 224.00 23.00 
C 214.21 21.11 208.36 36.13 219.00 40.00 C 229.64 43.87 234.77 25.08 224.00 23.00 Z"/>
</g>
<g fill="#BDD37E" fill-opacity="0.87" stroke="None">
<path d="
M 135.00 26.00 
C 115.36 21.43 108.90 48.22 126.78 54.22 C 144.66 60.22 152.11 29.98 135.00 26.00 Z"/>
</g>
<g fill="#D7D970" fill-opacity="0.98" stroke="None">
<path d="
M 64.00 54.00 
C 68.04 55.19 60.96 66.33 60.03 70.03 C 59.09 73.73 56.03 79.45 54.74 83.75 C 53.45 88.06 49.87 94.70 49.20 99.25 C 48.53 103.80 43.94 108.15 43.22 113.22 C 42.51 118.30 39.26 122.47 37.70 126.70 C 36.14 130.94 34.33 136.59 33.20 141.25 C 32.07 145.90 25.77 152.40 26.00 155.00
C 28.50 159.35 31.73 163.18 35.00 167.00
C 43.12 176.50 54.94 182.81 66.00 187.00
C 68.35 187.65 70.62 188.50 73.00 189.00
C 76.93 187.72 77.92 177.89 80.32 174.32 C 82.72 170.75 83.46 162.52 86.00 158.00
C 82.66 157.84 83.80 157.20 82.00 156.00
C 72.49 149.68 72.02 139.02 76.93 127.93 C 81.84 116.83 65.83 106.88 71.99 95.99 C 78.15 85.11 91.53 103.68 87.00 113.00
C 91.72 105.41 89.68 90.70 101.00 88.00
C 103.86 85.23 105.40 77.20 106.93 72.93 C 108.45 68.65 113.20 61.33 113.00 57.00
C 112.67 56.83 112.27 56.18 112.00 56.00
C 96.39 50.24 80.20 49.67 64.00 54.00 Z"/>
</g>
<g fill="#9DD18E" fill-opacity="0.27" stroke="None">
<path d="
M 140.00 65.00 
C 148.85 65.86 155.63 62.83 164.00 59.00
C 175.84 53.59 186.18 53.85 199.00 53.00
C 200.16 52.92 201.45 52.07 202.00 52.00
C 191.10 50.78 178.38 51.40 168.22 55.22 C 158.06 59.05 151.27 64.77 140.00 65.00 Z"/>
</g>
<g fill="#95D194" fill-opacity="0.98" stroke="None">
<path d="
M 164.00 59.00 
C 161.51 62.35 161.04 69.53 158.74 73.74 C 156.45 77.95 154.21 82.98 153.40 87.74 C 152.60 92.51 147.99 97.12 147.00 102.00
C 144.70 113.36 151.36 126.30 152.00 138.00
C 152.48 140.96 152.96 142.97 152.00 146.00
C 149.02 155.41 139.08 153.38 131.00 152.00
C 129.91 151.81 127.38 152.31 126.00 150.00
C 123.79 152.17 120.24 153.05 117.00 153.00
C 112.15 155.65 112.15 165.90 109.41 169.75 C 106.67 173.60 105.76 181.49 105.00 186.00
C 120.56 183.26 135.87 184.78 144.00 200.00
C 146.16 202.47 146.48 205.29 148.00 208.00
C 147.81 204.84 152.77 199.37 153.21 195.77 C 153.65 192.16 157.30 186.32 158.39 182.25 C 159.49 178.18 161.98 172.77 165.00 169.00
C 165.24 168.70 165.00 168.00 165.00 168.00
C 159.70 168.40 157.93 165.65 158.00 162.00
C 158.13 155.24 160.94 152.37 163.32 146.32 C 165.70 140.27 165.40 133.03 165.00 126.00 C 164.60 118.97 162.80 115.62 163.98 107.98 C 165.15 100.33 172.29 104.13 177.00 103.00
C 178.16 102.72 179.25 101.97 181.00 102.00
C 177.29 99.47 184.72 90.01 185.92 85.92 C 187.12 81.83 189.08 72.88 191.40 69.25 C 193.72 65.62 194.23 55.37 199.00 53.00
C 186.18 53.85 175.84 53.59 164.00 59.00 Z"/>
</g>
<g fill="#70CCA9" fill-opacity="0.97" stroke="None">
<path d="
M 199.00 53.00 
C 194.23 55.37 193.72 65.62 191.40 69.25 C 189.08 72.88 187.12 81.83 185.92 85.92 C 184.72 90.01 177.29 99.47 181.00 102.00
C 184.06 102.05 183.95 102.55 186.00 104.00
C 194.89 110.29 199.18 120.66 200.00 131.00
C 200.73 134.79 200.72 138.27 200.00 142.00
C 199.00 154.60 191.66 166.92 178.00 168.00
C 174.23 168.73 169.45 169.40 165.00 169.00
C 161.98 172.77 159.49 178.18 158.39 182.25 C 157.30 186.32 153.65 192.16 153.21 195.77 C 152.77 199.37 147.81 204.84 148.00 208.00
C 148.60 209.07 149.39 209.97 150.00 211.00
C 158.59 225.57 174.78 236.29 191.00 240.00
C 195.73 238.90 193.97 233.17 196.19 228.75 C 198.42 224.34 199.52 222.68 201.59 216.25 C 203.66 209.81 208.49 197.76 211.26 191.25 C 214.04 184.73 213.70 183.56 215.19 179.75 C 216.68 175.95 221.84 168.15 219.00 167.00
C 217.68 167.13 216.32 166.90 215.00 167.00
C 210.75 167.97 211.63 169.13 208.00 167.00
C 200.47 162.58 204.50 155.26 206.00 148.00
C 206.29 144.77 206.12 141.24 206.00 138.00
C 205.67 129.34 202.17 122.13 200.00 114.00
C 199.28 111.30 198.78 109.74 200.00 107.00
C 202.70 100.96 216.28 101.05 222.00 102.00
C 226.64 102.77 232.70 107.52 235.00 113.00
C 237.65 113.88 236.13 110.34 238.00 110.00
C 239.28 98.22 247.88 90.56 260.00 94.00
C 262.54 90.20 261.74 84.80 263.20 81.75 C 264.66 78.71 269.31 73.86 269.25 71.25 C 269.19 68.63 272.50 61.13 272.00 61.00
C 261.67 65.10 254.40 72.89 242.00 71.00
C 234.14 69.80 227.40 61.76 221.00 58.00
C 215.10 55.24 208.48 52.72 202.00 52.00
C 201.45 52.07 200.16 52.92 199.00 53.00 Z"/>
</g>
<g fill="#F0DB62" fill-opacity="0.97" stroke="None">
<path d="
M 21.00 146.00 
C 22.50 148.81 24.32 152.08 26.00 155.00
C 25.77 152.40 32.07 145.90 33.20 141.25 C 34.33 136.59 36.14 130.94 37.70 126.70 C 39.26 122.47 42.51 118.30 43.22 113.22 C 43.94 108.15 48.53 103.80 49.20 99.25 C 49.87 94.70 53.45 88.06 54.74 83.75 C 56.03 79.45 59.09 73.73 60.03 70.03 C 60.96 66.33 68.04 55.19 64.00 54.00
C 25.46 64.29 7.24 110.94 21.00 146.00 Z"/>
</g>
<g fill="#B6BA91" fill-opacity="0.07" stroke="None">
<path d="
M 113.00 57.00 
C 115.02 58.04 116.99 58.97 119.00 60.00
C 119.72 60.37 120.25 60.70 121.00 61.00
C 118.05 59.37 115.45 57.27 112.00 56.00
C 112.27 56.18 112.67 56.83 113.00 57.00 Z"/>
</g>
<g fill="#B3D584" fill-opacity="0.95" stroke="None">
<path d="
M 101.00 88.00 
C 107.88 88.07 109.34 97.35 106.23 102.23 C 103.12 107.11 98.95 112.19 98.00 118.00
C 113.16 114.57 120.12 130.47 127.00 140.00
C 128.56 132.26 133.70 124.21 134.33 116.33 C 134.96 108.45 136.13 94.92 147.00 102.00
C 147.99 97.12 152.60 92.51 153.40 87.74 C 154.21 82.98 156.45 77.95 158.74 73.74 C 161.04 69.53 161.51 62.35 164.00 59.00
C 155.63 62.83 148.85 65.86 140.00 65.00
C 135.07 65.10 130.45 64.59 126.00 63.00
C 123.35 62.54 121.94 61.88 119.00 60.00
C 116.99 58.97 115.02 58.04 113.00 57.00
C 113.20 61.33 108.45 68.65 106.93 72.93 C 105.40 77.20 103.86 85.23 101.00 88.00
M 145.00 86.00 
C 151.47 87.84 148.20 98.29 141.00 96.00 C 133.80 93.71 137.29 83.81 145.00 86.00 Z"/>
</g>
<g fill="#3BC5C6" fill-opacity="0.98" stroke="None">
<path d="
M 272.00 61.00 
C 272.50 61.13 269.19 68.63 269.25 71.25 C 269.31 73.86 264.66 78.71 263.20 81.75 C 261.74 84.80 262.54 90.20 260.00 94.00
C 261.78 94.51 263.30 95.13 265.00 96.00
C 268.42 97.75 271.77 100.58 274.00 104.00
C 279.90 113.06 284.35 124.83 284.00 136.00 C 283.65 147.17 274.14 158.51 262.00 156.00
C 260.05 156.84 260.52 166.03 258.61 168.75 C 256.69 171.48 254.52 177.76 252.43 181.77 C 250.34 185.77 250.41 190.76 248.61 194.75 C 246.80 198.75 243.37 205.45 242.61 208.75 C 241.84 212.06 237.44 220.83 236.75 222.75 C 236.06 224.67 231.80 235.54 234.00 236.00
C 247.34 230.11 259.32 220.07 267.08 207.08 C 274.84 194.09 274.96 176.44 289.00 167.00
C 288.73 167.06 286.11 166.46 285.00 167.00
C 298.48 132.19 310.10 104.35 322.00 70.00
C 323.16 68.08 325.24 71.32 326.00 69.00
C 310.33 56.63 290.36 53.71 272.00 61.00 Z"/>
</g>
<g fill="#88BBA7" fill-opacity="0.16" stroke="None">
<path d="
M 242.00 71.00 
C 235.06 69.28 227.84 61.20 221.00 58.00
C 227.40 61.76 234.14 69.80 242.00 71.00 Z"/>
</g>
<g fill="#B9CF82" fill-opacity="0.33" stroke="None">
<path d="
M 126.00 63.00 
C 124.35 62.41 122.57 61.63 121.00 61.00
C 120.25 60.70 119.72 60.37 119.00 60.00
C 121.94 61.88 123.35 62.54 126.00 63.00 Z"/>
</g>
<g fill="#22C2D4" fill-opacity="0.99" stroke="None">
<path d="
M 289.00 167.00 
C 301.06 158.89 317.78 160.08 328.25 148.25 C 338.72 136.42 346.81 122.95 345.00 107.00 C 343.19 91.05 338.70 79.03 326.00 69.00
C 325.24 71.32 323.16 68.08 322.00 70.00
C 310.10 104.35 298.48 132.19 285.00 167.00
C 286.11 166.46 288.73 167.06 289.00 167.00 Z"/>
</g>
<g fill="#000000" fill-opacity="0.00" stroke="None">
<path d="
M 145.00 86.00 
C 137.29 83.81 133.80 93.71 141.00 96.00 C 148.20 98.29 151.47 87.84 145.00 86.00 Z"/>
</g>
<g fill="#000000" fill-opacity="0.00" stroke="None">
<path d="
M 82.00 156.00 
C 85.44 157.25 87.60 156.95 91.00 156.00
C 104.97 152.10 99.96 137.03 94.00 128.00
C 111.70 124.55 97.68 153.62 114.00 153.00
C 118.50 152.92 123.73 149.71 128.00 148.00
C 127.79 149.77 129.54 151.37 131.00 152.00
C 139.08 153.38 149.02 155.41 152.00 146.00
C 152.43 143.59 152.13 140.45 152.00 138.00
C 151.36 126.30 144.70 113.36 147.00 102.00
C 136.13 94.92 134.96 108.45 134.33 116.33 C 133.70 124.21 128.56 132.26 127.00 140.00
C 120.12 130.47 113.16 114.57 98.00 118.00
C 98.95 112.19 103.12 107.11 106.23 102.23 C 109.34 97.35 107.88 88.07 101.00 88.00
C 89.68 90.70 91.72 105.41 87.00 113.00
C 91.53 103.68 78.15 85.11 71.99 95.99 C 65.83 106.88 81.84 116.83 76.93 127.93 C 72.02 139.02 72.49 149.68 82.00 156.00 Z"/>
</g>
<g fill="#000000" fill-opacity="0.00" stroke="None">
<path d="
M 238.00 110.00 
C 237.62 113.51 238.48 117.12 237.00 120.00
C 235.07 112.38 228.35 106.00 222.00 102.00
C 216.28 101.05 202.70 100.96 200.00 107.00
C 199.53 108.80 199.75 112.15 200.00 114.00
C 202.17 122.13 205.67 129.34 206.00 138.00
C 206.49 141.45 206.71 144.55 206.00 148.00
C 204.50 155.26 200.47 162.58 208.00 167.00
C 210.85 168.01 211.97 167.23 215.00 167.00
C 216.32 166.90 217.68 167.13 219.00 167.00
C 235.08 165.42 242.00 153.41 242.00 138.00
C 242.00 137.17 239.97 134.56 241.00 133.00
C 242.49 134.16 243.02 136.34 244.00 138.00
C 247.46 144.78 254.19 154.38 262.00 156.00
C 274.14 158.51 283.65 147.17 284.00 136.00 C 284.35 124.83 279.90 113.06 274.00 104.00
C 272.02 101.42 267.55 97.62 265.00 96.00
C 263.30 95.13 261.78 94.51 260.00 94.00
C 247.88 90.56 239.28 98.22 238.00 110.00
M 251.00 114.00 
C 250.49 111.14 248.54 106.39 252.00 104.00
C 256.73 100.73 260.53 108.82 262.77 112.23 C 265.01 115.64 267.05 127.59 259.99 126.99 C 252.93 126.39 251.94 119.24 251.00 114.00
M 221.00 114.00 
C 227.61 115.91 227.88 138.19 221.32 136.66 C 214.76 135.13 213.30 111.77 221.00 114.00 Z"/>
</g>
<g fill="#A9E2DA" fill-opacity="0.29" stroke="None">
<path d="
M 274.00 104.00 
C 271.77 100.58 268.42 97.75 265.00 96.00
C 267.55 97.62 272.02 101.42 274.00 104.00 Z"/>
</g>
<g fill="#A0DFC8" fill-opacity="0.37" stroke="None">
<path d="
M 222.00 102.00 
C 228.35 106.00 235.07 112.38 237.00 120.00
C 238.48 117.12 237.62 113.51 238.00 110.00
C 236.13 110.34 237.65 113.88 235.00 113.00
C 232.70 107.52 226.64 102.77 222.00 102.00 Z"/>
</g>
<g fill="#000000" fill-opacity="0.00" stroke="None">
<path d="
M 158.00 162.00 
C 159.02 166.59 163.23 165.97 166.00 168.00
C 169.96 168.00 174.06 168.31 178.00 168.00
C 191.66 166.92 199.00 154.60 200.00 142.00
C 200.28 138.49 200.28 134.51 200.00 131.00
C 199.18 120.66 194.89 110.29 186.00 104.00
C 183.26 102.76 180.07 103.08 177.00 103.00
C 172.29 104.13 165.15 100.33 163.98 107.98 C 162.80 115.62 164.60 118.97 165.00 126.00 C 165.40 133.03 165.70 140.27 163.32 146.32 C 160.94 152.37 158.13 155.24 158.00 162.00
M 180.00 139.00 
C 176.01 134.92 176.23 113.95 183.22 116.78 C 190.22 119.62 187.49 139.32 180.00 139.00 Z"/>
</g>
<g fill="#B8E2BE" fill-opacity="0.28" stroke="None">
<path d="
M 177.00 103.00 
C 180.07 103.08 183.26 102.76 186.00 104.00
C 183.95 102.55 184.06 102.05 181.00 102.00
C 179.25 101.97 178.16 102.72 177.00 103.00 Z"/>
</g>
<g fill="#5CCBBF" fill-opacity="0.88" stroke="None">
<path d="
M 252.00 104.00 
C 250.52 105.57 250.90 111.84 251.00 114.00
C 251.94 119.24 252.93 126.39 259.99 126.99 C 267.05 127.59 265.01 115.64 262.77 112.23 C 260.53 108.82 256.73 100.73 252.00 104.00 Z"/>
</g>
<g fill="#A3E1D1" fill-opacity="0.33" stroke="None">
<path d="
M 251.00 114.00 
C 250.90 111.84 250.52 105.57 252.00 104.00
C 248.54 106.39 250.49 111.14 251.00 114.00 Z"/>
</g>
<g fill="#B3E2C6" fill-opacity="0.23" stroke="None">
<path d="
M 200.00 114.00 
C 199.75 112.15 199.53 108.80 200.00 107.00
C 198.78 109.74 199.28 111.30 200.00 114.00 Z"/>
</g>
<g fill="#75D0B4" fill-opacity="0.80" stroke="None">
<path d="
M 221.00 114.00 
C 213.30 111.77 214.76 135.13 221.32 136.66 C 227.88 138.19 227.61 115.91 221.00 114.00 Z"/>
</g>
<g fill="#89D1A4" fill-opacity="0.82" stroke="None">
<path d="
M 180.00 139.00 
C 187.49 139.32 190.22 119.62 183.22 116.78 C 176.23 113.95 176.01 134.92 180.00 139.00 Z"/>
</g>
<g fill="#B4D584" fill-opacity="0.95" stroke="None">
<path d="
M 91.00 156.00 
C 89.39 156.79 89.41 158.16 86.00 158.00
C 83.46 162.52 82.72 170.75 80.32 174.32 C 77.92 177.89 76.93 187.72 73.00 189.00
C 80.07 190.49 88.28 190.30 95.00 189.00
C 96.00 188.62 101.47 186.62 105.00 186.00
C 105.76 181.49 106.67 173.60 109.41 169.75 C 112.15 165.90 112.15 155.65 117.00 153.00
C 116.02 153.03 114.98 153.05 114.00 153.00
C 97.68 153.62 111.70 124.55 94.00 128.00
C 99.96 137.03 104.97 152.10 91.00 156.00 Z"/>
</g>
<g fill="#A1DDC1" fill-opacity="0.44" stroke="None">
<path d="
M 200.00 142.00 
C 200.72 138.27 200.73 134.79 200.00 131.00
C 200.28 134.51 200.28 138.49 200.00 142.00 Z"/>
</g>
<g fill="#C5EDDD" fill-opacity="0.15" stroke="None">
<path d="
M 242.00 138.00 
C 242.45 137.20 243.22 137.34 244.00 138.00
C 243.02 136.34 242.49 134.16 241.00 133.00
C 239.97 134.56 242.00 137.17 242.00 138.00 Z"/>
</g>
<g fill="#4DC8BC" fill-opacity="0.98" stroke="None">
<path d="
M 242.00 138.00 
C 242.00 153.41 235.08 165.42 219.00 167.00
C 221.84 168.15 216.68 175.95 215.19 179.75 C 213.70 183.56 214.04 184.73 211.26 191.25 C 208.49 197.76 203.66 209.81 201.59 216.25 C 199.52 222.68 198.42 224.34 196.19 228.75 C 193.97 233.17 195.73 238.90 191.00 240.00
C 204.59 243.11 221.62 241.47 234.00 236.00
C 231.80 235.54 236.06 224.67 236.75 222.75 C 237.44 220.83 241.84 212.06 242.61 208.75 C 243.37 205.45 246.80 198.75 248.61 194.75 C 250.41 190.76 250.34 185.77 252.43 181.77 C 254.52 177.76 256.69 171.48 258.61 168.75 C 260.52 166.03 260.05 156.84 262.00 156.00
C 254.19 154.38 247.46 144.78 244.00 138.00
C 243.22 137.34 242.45 137.20 242.00 138.00 Z"/>
</g>
<g fill="#C9E9C6" fill-opacity="0.15" stroke="None">
<path d="
M 152.00 146.00 
C 152.96 142.97 152.48 140.96 152.00 138.00
C 152.13 140.45 152.43 143.59 152.00 146.00 Z"/>
</g>
<g fill="#BCE6D3" fill-opacity="0.18" stroke="None">
<path d="
M 206.00 148.00 
C 206.71 144.55 206.49 141.45 206.00 138.00
C 206.12 141.24 206.29 144.77 206.00 148.00 Z"/>
</g>
<g fill="#CCC582" fill-opacity="0.30" stroke="None">
<path d="
M 31.00 164.00 
C 32.08 165.12 33.92 165.97 35.00 167.00
C 31.73 163.18 28.50 159.35 26.00 155.00
C 24.32 152.08 22.50 148.81 21.00 146.00
C 23.52 152.43 26.63 158.46 31.00 164.00 Z"/>
</g>
<g fill="#B3DA9D" fill-opacity="0.44" stroke="None">
<path d="
M 114.00 153.00 
C 114.98 153.05 116.02 153.03 117.00 153.00
C 120.24 153.05 123.79 152.17 126.00 150.00
C 127.38 152.31 129.91 151.81 131.00 152.00
C 129.54 151.37 127.79 149.77 128.00 148.00
C 123.73 149.71 118.50 152.92 114.00 153.00 Z"/>
</g>
<g fill="#C4DA8A" fill-opacity="0.60" stroke="None">
<path d="
M 86.00 158.00 
C 89.41 158.16 89.39 156.79 91.00 156.00
C 87.60 156.95 85.44 157.25 82.00 156.00
C 83.80 157.20 82.66 157.84 86.00 158.00 Z"/>
</g>
<g fill="#9CD7AB" fill-opacity="0.48" stroke="None">
<path d="
M 165.00 168.00 
C 165.50 167.96 166.00 168.00 166.00 168.00
C 163.23 165.97 159.02 166.59 158.00 162.00
C 157.93 165.65 159.70 168.40 165.00 168.00 Z"/>
</g>
<g fill="#BEC08B" fill-opacity="0.15" stroke="None">
<path d="
M 66.00 187.00 
C 54.94 182.81 43.12 176.50 35.00 167.00
C 33.92 165.97 32.08 165.12 31.00 164.00
C 40.12 175.55 52.39 183.26 66.00 187.00 Z"/>
</g>
<g fill="#A1DCCE" fill-opacity="0.40" stroke="None">
<path d="
M 215.00 167.00 
C 211.97 167.23 210.85 168.01 208.00 167.00
C 211.63 169.13 210.75 167.97 215.00 167.00 Z"/>
</g>
<g fill="#84D0A5" fill-opacity="0.65" stroke="None">
<path d="
M 165.00 169.00 
C 169.45 169.40 174.23 168.73 178.00 168.00
C 174.06 168.31 169.96 168.00 166.00 168.00
C 166.00 168.00 165.50 167.96 165.00 168.00
C 165.00 168.00 165.24 168.70 165.00 169.00 Z"/>
</g>
<g fill="#23C1DA" fill-opacity="0.96" stroke="None">
<path d="
M 310.00 181.00 
C 291.62 178.16 287.13 206.87 305.33 209.67 C 323.53 212.47 327.28 183.67 310.00 181.00 Z"/>
</g>
<g fill="#9BD190" fill-opacity="0.27" stroke="None">
<path d="
M 105.00 186.00 
C 101.47 186.62 96.00 188.62 95.00 189.00
C 111.72 185.77 133.00 181.27 143.00 200.00
C 143.11 200.21 144.00 200.00 144.00 200.00
C 135.87 184.78 120.56 183.26 105.00 186.00 Z"/>
</g>
<g fill="#87C1A9" fill-opacity="0.11" stroke="None">
<path d="
M 150.00 211.00 
C 149.39 209.97 148.60 209.07 148.00 208.00
C 146.48 205.29 146.16 202.47 144.00 200.00
C 144.00 200.00 143.11 200.21 143.00 200.00
C 145.14 203.97 147.40 207.37 150.00 211.00 Z"/>
</g>
</svg>